<svg width="48" height="48" viewBox="0 0 48 48" fill="none" xmlns="http://www.w3.org/2000/svg">
<path d="M0 12.6316C0 5.65535 5.65535 0 12.6316 0H35.3684C42.3446 0 48 5.65535 48 12.6316V35.3684C48 42.3446 42.3446 48 35.3684 48H12.6316C5.65535 48 0 42.3446 0 35.3684V12.6316Z" fill="#465FFF"/>
<path d="M18.0103 11.3532C18.2635 11.1136 18.4157 10.7782 18.4335 10.4206C18.4513 10.0631 18.3333 9.71272 18.1053 9.44665C17.8773 9.18058 17.5581 9.02058 17.2179 9.00185C16.8777 8.98312 16.5443 9.10719 16.2911 9.34678L13.3168 12.1612C12.0548 13.3543 11.0103 14.3422 10.2911 15.2383C9.53767 16.1831 9 17.1962 9 18.4487C9 19.6993 9.53596 20.7124 10.2911 21.6554C11.0103 22.5533 12.0548 23.543 13.3168 24.7343L16.2911 27.5487C16.4165 27.6674 16.5628 27.7589 16.7218 27.8181C16.8809 27.8772 17.0494 27.9029 17.2179 27.8937C17.3863 27.8844 17.5514 27.8403 17.7037 27.764C17.856 27.6877 17.9924 27.5806 18.1053 27.4489C18.2182 27.3171 18.3053 27.1633 18.3616 26.9962C18.4179 26.8291 18.4424 26.6519 18.4335 26.4749C18.4247 26.2978 18.3828 26.1244 18.3102 25.9644C18.2375 25.8043 18.1356 25.6609 18.0103 25.5423L15.1045 22.7945C13.7551 21.5186 12.8459 20.653 12.2568 19.9188C11.6918 19.2116 11.5685 18.7996 11.5685 18.4487C11.5685 18.096 11.6918 17.6839 12.2568 16.9767C12.8459 16.2407 13.7551 15.3769 15.1045 14.1011L18.0103 11.3532ZM27.7329 9.35218C27.8959 9.39773 28.0489 9.47661 28.1829 9.5843C28.3169 9.69198 28.4295 9.82637 28.5141 9.97978C28.5987 10.1332 28.6537 10.3026 28.6759 10.4784C28.6982 10.6541 28.6873 10.8328 28.6438 11.0041L21.8168 37.9966C21.7734 38.168 21.6983 38.3286 21.5958 38.4695C21.4933 38.6103 21.3655 38.7285 21.2195 38.8174C21.0735 38.9063 20.9123 38.9641 20.7451 38.9876C20.5779 39.011 20.4079 38.9996 20.2449 38.954C20.0818 38.9084 19.929 38.8295 19.7949 38.7218C19.6609 38.6141 19.5484 38.4797 19.4638 38.3263C19.3792 38.1729 19.3242 38.0035 19.3019 37.8277C19.2796 37.652 19.2905 37.4734 19.3339 37.302L26.161 10.3095C26.2043 10.1382 26.2794 9.97745 26.3818 9.83659C26.4843 9.69572 26.6122 9.57746 26.7582 9.48855C26.9041 9.39965 27.0654 9.34185 27.2326 9.31845C27.3999 9.29504 27.5698 9.30651 27.7329 9.35218ZM29.8955 20.5505C30.1236 20.2847 30.4427 20.125 30.7827 20.1064C31.1228 20.0879 31.4559 20.212 31.7089 20.4515L34.6832 23.2641C35.9452 24.4572 36.9897 25.4469 37.7089 26.3431C38.4623 27.286 39 28.3009 39 29.5516C39 30.8022 38.464 31.8172 37.7089 32.7601C36.9897 33.6562 35.9452 34.646 34.6832 35.8372L31.7089 38.6535C31.5834 38.7721 31.4369 38.8636 31.2778 38.9227C31.1187 38.9819 30.9501 39.0075 30.7815 38.9981C30.613 38.9888 30.4478 38.9446 30.2955 38.8682C30.1432 38.7918 30.0067 38.6845 29.8938 38.5527C29.781 38.4208 29.6939 38.2669 29.6376 38.0997C29.5813 37.9324 29.557 37.7552 29.5659 37.5781C29.5748 37.401 29.6168 37.2274 29.6895 37.0673C29.7622 36.9073 29.8643 36.7638 29.9897 36.6452L32.8955 33.8992C34.2449 32.6215 35.1541 31.7578 35.7431 31.0218C36.3082 30.3164 36.4315 29.9025 36.4315 29.5516C36.4315 29.2007 36.3082 28.7868 35.7431 28.0814C35.1541 27.3436 34.2449 26.4798 32.8955 25.204L29.9897 22.4561C29.7368 22.2165 29.5849 21.8812 29.5672 21.5238C29.5495 21.1664 29.6676 20.8163 29.8955 20.5505Z" fill="white"/>
</svg>
