<svg width="107" height="32" viewBox="0 0 107 32" fill="none" xmlns="http://www.w3.org/2000/svg">
<path d="M45.088 17V5.704H47.6V17H45.088ZM47.024 17V14.792H52.608V17H47.024ZM54.0568 17V5.704H56.5688V17H54.0568ZM55.9768 17V14.824H62.1688V17H55.9768ZM55.9768 12.28V10.184H61.6088V12.28H55.9768ZM55.9768 7.864V5.704H62.0888V7.864H55.9768ZM63.0525 17L67.5325 5.704H69.8045L74.2365 17H71.5805L68.1885 7.624H69.1005L65.6605 17H63.0525ZM65.5965 14.952V12.904H71.7565V14.952H65.5965ZM77.3518 12.344V10.488H79.7358C80.2371 10.488 80.6211 10.36 80.8878 10.104C81.1651 9.848 81.3038 9.50133 81.3038 9.064C81.3038 8.65867 81.1704 8.32267 80.9038 8.056C80.6371 7.78933 80.2531 7.656 79.7518 7.656H77.3518V5.704H80.0398C80.7864 5.704 81.4424 5.848 82.0078 6.136C82.5731 6.41333 83.0158 6.80267 83.3358 7.304C83.6558 7.80533 83.8158 8.38133 83.8158 9.032C83.8158 9.69333 83.6558 10.2747 83.3358 10.776C83.0158 11.2667 82.5678 11.6507 81.9918 11.928C81.4158 12.2053 80.7384 12.344 79.9598 12.344H77.3518ZM75.4318 17V5.704H77.9438V17H75.4318ZM81.5758 17L78.0558 12.136L80.3598 11.512L84.5518 17H81.5758ZM85.6505 17V5.704H87.4105L88.1625 7.96V17H85.6505ZM93.4425 17L86.7865 8.472L87.4105 5.704L94.0665 14.232L93.4425 17ZM93.4425 17L92.7705 14.744V5.704H95.2825V17H93.4425Z" fill="#101828"/>
<path d="M45.87 28L44.06 23.17H45.38L46.56 26.68L46.16 26.69L47.37 23.17H48.32L49.53 26.69L49.13 26.68L50.31 23.17H51.63L49.83 28H48.88L47.66 24.66H48.03L46.81 28H45.87ZM52.1874 28V23.17H53.5074V28H52.1874ZM52.8474 22.39C52.6341 22.39 52.4574 22.32 52.3174 22.18C52.1774 22.0333 52.1074 21.8533 52.1074 21.64C52.1074 21.4333 52.1774 21.2567 52.3174 21.11C52.4574 20.9633 52.6341 20.89 52.8474 20.89C53.0674 20.89 53.2441 20.9633 53.3774 21.11C53.5174 21.2567 53.5874 21.4333 53.5874 21.64C53.5874 21.8533 53.5174 22.0333 53.3774 22.18C53.2441 22.32 53.0674 22.39 52.8474 22.39ZM55.3779 28V21.16H56.6879V28H55.3779ZM54.2479 24.32V23.17H57.8179V24.32H54.2479ZM61.8046 28V25.23C61.8046 24.9433 61.7146 24.71 61.5346 24.53C61.3546 24.35 61.1213 24.26 60.8346 24.26C60.6479 24.26 60.4813 24.3 60.3346 24.38C60.1879 24.46 60.0713 24.5733 59.9846 24.72C59.9046 24.8667 59.8646 25.0367 59.8646 25.23L59.3546 24.97C59.3546 24.59 59.4346 24.26 59.5946 23.98C59.7546 23.6933 59.9746 23.47 60.2546 23.31C60.5413 23.15 60.8679 23.07 61.2346 23.07C61.6013 23.07 61.9246 23.15 62.2046 23.31C62.4913 23.47 62.7146 23.69 62.8746 23.97C63.0346 24.25 63.1146 24.5733 63.1146 24.94V28H61.8046ZM58.5546 28V20.77H59.8646V28H58.5546ZM67.263 25.06V24H68.893C69.2263 24 69.483 23.9167 69.663 23.75C69.8496 23.5767 69.943 23.34 69.943 23.04C69.943 22.7667 69.8496 22.54 69.663 22.36C69.483 22.1733 69.2263 22.08 68.893 22.08H67.263V20.97H69.013C69.4663 20.97 69.863 21.06 70.203 21.24C70.5496 21.4133 70.8163 21.6533 71.003 21.96C71.1963 22.2667 71.293 22.62 71.293 23.02C71.293 23.4333 71.1963 23.7933 71.003 24.1C70.8163 24.4 70.5496 24.6367 70.203 24.81C69.8563 24.9767 69.453 25.06 68.993 25.06H67.263ZM66.263 28V20.97H67.623V28H66.263ZM70.103 28L67.783 24.96L69.033 24.57L71.753 28H70.103ZM74.266 28.1C73.826 28.1 73.4293 27.99 73.076 27.77C72.7227 27.55 72.446 27.25 72.246 26.87C72.046 26.49 71.946 26.0633 71.946 25.59C71.946 25.11 72.046 24.68 72.246 24.3C72.446 23.92 72.7227 23.62 73.076 23.4C73.4293 23.18 73.826 23.07 74.266 23.07C74.6127 23.07 74.9227 23.14 75.196 23.28C75.4693 23.42 75.686 23.6167 75.846 23.87C76.0127 24.1167 76.1027 24.3967 76.116 24.71V26.45C76.1027 26.77 76.0127 27.0533 75.846 27.3C75.686 27.5467 75.4693 27.7433 75.196 27.89C74.9227 28.03 74.6127 28.1 74.266 28.1ZM74.506 26.89C74.8727 26.89 75.1693 26.77 75.396 26.53C75.6227 26.2833 75.736 25.9667 75.736 25.58C75.736 25.3267 75.6827 25.1033 75.576 24.91C75.476 24.71 75.3327 24.5567 75.146 24.45C74.966 24.3367 74.7527 24.28 74.506 24.28C74.266 24.28 74.0527 24.3367 73.866 24.45C73.686 24.5567 73.5427 24.71 73.436 24.91C73.336 25.1033 73.286 25.3267 73.286 25.58C73.286 25.84 73.336 26.07 73.436 26.27C73.5427 26.4633 73.686 26.6167 73.866 26.73C74.0527 26.8367 74.266 26.89 74.506 26.89ZM75.666 28V26.7L75.876 25.52L75.666 24.36V23.17H76.966V28H75.666ZM81.3749 28V25.23C81.3749 24.9433 81.2849 24.71 81.1049 24.53C80.9249 24.35 80.6916 24.26 80.4049 24.26C80.2183 24.26 80.0516 24.3 79.9049 24.38C79.7583 24.46 79.6416 24.5733 79.5549 24.72C79.4749 24.8667 79.4349 25.0367 79.4349 25.23L78.9249 24.97C78.9249 24.59 79.0049 24.26 79.1649 23.98C79.3249 23.6933 79.5449 23.47 79.8249 23.31C80.1116 23.15 80.4383 23.07 80.8049 23.07C81.1716 23.07 81.4949 23.15 81.7749 23.31C82.0616 23.47 82.2849 23.69 82.4449 23.97C82.6049 24.25 82.6849 24.5733 82.6849 24.94V28H81.3749ZM78.1249 28V20.77H79.4349V28H78.1249ZM83.7402 28V23.17H85.0502V28H83.7402ZM86.8902 28V25.15C86.8902 24.87 86.8002 24.6533 86.6202 24.5C86.4468 24.34 86.2302 24.26 85.9702 24.26C85.7968 24.26 85.6402 24.2967 85.5002 24.37C85.3602 24.4367 85.2502 24.5367 85.1702 24.67C85.0902 24.8033 85.0502 24.9633 85.0502 25.15L84.5402 24.9C84.5402 24.5267 84.6202 24.2033 84.7802 23.93C84.9468 23.6567 85.1702 23.4467 85.4502 23.3C85.7302 23.1467 86.0468 23.07 86.4002 23.07C86.7335 23.07 87.0368 23.1467 87.3102 23.3C87.5835 23.4467 87.8002 23.6567 87.9602 23.93C88.1202 24.1967 88.2002 24.52 88.2002 24.9V28H86.8902ZM90.0402 28V25.15C90.0402 24.87 89.9502 24.6533 89.7702 24.5C89.5968 24.34 89.3802 24.26 89.1202 24.26C88.9535 24.26 88.7968 24.2967 88.6502 24.37C88.5102 24.4367 88.4002 24.5367 88.3202 24.67C88.2402 24.8033 88.2002 24.9633 88.2002 25.15L87.4502 24.97C87.4768 24.5833 87.5802 24.25 87.7602 23.97C87.9402 23.6833 88.1768 23.4633 88.4702 23.31C88.7635 23.15 89.0902 23.07 89.4502 23.07C89.8102 23.07 90.1335 23.1467 90.4202 23.3C90.7068 23.4467 90.9335 23.66 91.1002 23.94C91.2668 24.22 91.3502 24.5533 91.3502 24.94V28H90.0402ZM92.412 28V20.77H93.722V28H92.412ZM96.9027 28.1C96.4627 28.1 96.0661 27.99 95.7127 27.77C95.3594 27.55 95.0827 27.25 94.8827 26.87C94.6827 26.49 94.5827 26.0633 94.5827 25.59C94.5827 25.11 94.6827 24.68 94.8827 24.3C95.0827 23.92 95.3594 23.62 95.7127 23.4C96.0661 23.18 96.4627 23.07 96.9027 23.07C97.2494 23.07 97.5594 23.14 97.8327 23.28C98.1061 23.42 98.3227 23.6167 98.4827 23.87C98.6494 24.1167 98.7394 24.3967 98.7527 24.71V26.45C98.7394 26.77 98.6494 27.0533 98.4827 27.3C98.3227 27.5467 98.1061 27.7433 97.8327 27.89C97.5594 28.03 97.2494 28.1 96.9027 28.1ZM97.1427 26.89C97.5094 26.89 97.8061 26.77 98.0327 26.53C98.2594 26.2833 98.3727 25.9667 98.3727 25.58C98.3727 25.3267 98.3194 25.1033 98.2127 24.91C98.1127 24.71 97.9694 24.5567 97.7827 24.45C97.6027 24.3367 97.3894 24.28 97.1427 24.28C96.9027 24.28 96.6894 24.3367 96.5027 24.45C96.3227 24.5567 96.1794 24.71 96.0727 24.91C95.9727 25.1033 95.9227 25.3267 95.9227 25.58C95.9227 25.84 95.9727 26.07 96.0727 26.27C96.1794 26.4633 96.3227 26.6167 96.5027 26.73C96.6894 26.8367 96.9027 26.89 97.1427 26.89ZM98.3027 28V26.7L98.5127 25.52L98.3027 24.36V23.17H99.6027V28H98.3027ZM102.802 28.1C102.355 28.1 101.955 27.99 101.602 27.77C101.248 27.55 100.968 27.25 100.762 26.87C100.562 26.49 100.462 26.0633 100.462 25.59C100.462 25.11 100.562 24.68 100.762 24.3C100.968 23.92 101.245 23.62 101.592 23.4C101.945 23.18 102.348 23.07 102.802 23.07C103.148 23.07 103.458 23.14 103.732 23.28C104.012 23.42 104.235 23.6167 104.402 23.87C104.575 24.1167 104.668 24.3967 104.682 24.71V26.43C104.668 26.7433 104.578 27.0267 104.412 27.28C104.245 27.5333 104.022 27.7333 103.742 27.88C103.462 28.0267 103.148 28.1 102.802 28.1ZM103.022 26.89C103.268 26.89 103.482 26.8367 103.662 26.73C103.848 26.6167 103.992 26.4633 104.092 26.27C104.198 26.07 104.252 25.84 104.252 25.58C104.252 25.3267 104.198 25.1033 104.092 24.91C103.992 24.71 103.848 24.5567 103.662 24.45C103.482 24.3367 103.272 24.28 103.032 24.28C102.785 24.28 102.568 24.3367 102.382 24.45C102.202 24.5633 102.058 24.7167 101.952 24.91C101.852 25.1033 101.802 25.3267 101.802 25.58C101.802 25.84 101.852 26.07 101.952 26.27C102.058 26.4633 102.205 26.6167 102.392 26.73C102.578 26.8367 102.788 26.89 103.022 26.89ZM105.482 28H104.182V26.7L104.392 25.52L104.172 24.36V20.77H105.482V28Z" fill="#101828"/>
<path d="M0 8.42105C0 3.77023 3.77023 0 8.42105 0H23.5789C28.2298 0 32 3.77023 32 8.42105V23.5789C32 28.2298 28.2298 32 23.5789 32H8.42105C3.77023 32 0 28.2298 0 23.5789V8.42105Z" fill="#465FFF"/>
<path d="M12.0068 7.56881C12.1756 7.40909 12.2771 7.18545 12.289 6.94708C12.3009 6.70871 12.2222 6.47515 12.0702 6.29777C11.9182 6.12039 11.7054 6.01372 11.4786 6.00123C11.2518 5.98875 11.0295 6.07146 10.8607 6.23119L8.87785 8.10747C8.03653 8.90284 7.34018 9.56146 6.86073 10.1589C6.35845 10.7887 6 11.4641 6 12.2991C6 13.1329 6.35731 13.8083 6.86073 14.4369C7.34018 15.0355 8.03653 15.6954 8.87785 16.4895L10.8607 18.3658C10.9443 18.4449 11.0419 18.5059 11.1479 18.5454C11.2539 18.5848 11.3663 18.602 11.4786 18.5958C11.5909 18.5896 11.701 18.5602 11.8025 18.5093C11.904 18.4585 11.995 18.3871 12.0702 18.2992C12.1455 18.2114 12.2035 18.1089 12.2411 17.9975C12.2786 17.886 12.2949 17.768 12.289 17.6499C12.2831 17.5319 12.2552 17.4162 12.2068 17.3096C12.1584 17.2029 12.0904 17.1073 12.0068 17.0282L10.0696 15.1963C9.17009 14.3457 8.56393 13.7687 8.17123 13.2792C7.79452 12.8078 7.71233 12.533 7.71233 12.2991C7.71233 12.064 7.79452 11.7892 8.17123 11.3178C8.56393 10.8271 9.17009 10.2513 10.0696 9.40071L12.0068 7.56881ZM18.4886 6.23478C18.5973 6.26515 18.6992 6.31774 18.7886 6.38953C18.878 6.46132 18.953 6.55091 19.0094 6.65319C19.0658 6.75546 19.1024 6.86841 19.1173 6.98559C19.1321 7.10276 19.1249 7.22186 19.0959 7.33608L14.5445 25.3311C14.5156 25.4453 14.4655 25.5524 14.3972 25.6463C14.3289 25.7402 14.2436 25.819 14.1463 25.8783C14.049 25.9376 13.9415 25.9761 13.8301 25.9917C13.7186 26.0073 13.6053 25.9997 13.4966 25.9693C13.3879 25.9389 13.286 25.8863 13.1966 25.8145C13.1073 25.7427 13.0323 25.6531 12.9759 25.5508C12.9195 25.4486 12.8828 25.3356 12.868 25.2185C12.8531 25.1013 12.8603 24.9822 12.8893 24.868L17.4406 6.87301C17.4695 6.75877 17.5196 6.65163 17.5879 6.55772C17.6562 6.46382 17.7415 6.38497 17.8388 6.3257C17.9361 6.26643 18.0436 6.2279 18.1551 6.2123C18.2666 6.1967 18.3799 6.20434 18.4886 6.23478ZM19.9304 13.7003C20.0824 13.5231 20.2951 13.4167 20.5218 13.4043C20.7485 13.3919 20.9706 13.4747 21.1393 13.6343L23.1221 15.5094C23.9635 16.3048 24.6598 16.9646 25.1393 17.562C25.6416 18.1907 26 18.8673 26 19.7011C26 20.5348 25.6427 21.2114 25.1393 21.8401C24.6598 22.4375 23.9635 23.0973 23.1221 23.8915L21.1393 25.769C21.0556 25.8481 20.958 25.9091 20.8519 25.9485C20.7458 25.9879 20.6334 26.005 20.521 25.9987C20.4086 25.9925 20.2985 25.9631 20.197 25.9121C20.0955 25.8612 20.0045 25.7897 19.9292 25.7018C19.854 25.6139 19.7959 25.5113 19.7584 25.3998C19.7209 25.2883 19.7046 25.1701 19.7106 25.0521C19.7165 24.934 19.7445 24.8183 19.793 24.7116C19.8415 24.6049 19.9095 24.5092 19.9932 24.4301L21.9304 22.5994C22.8299 21.7477 23.4361 21.1718 23.8288 20.6812C24.2055 20.2109 24.2877 19.935 24.2877 19.7011C24.2877 19.4671 24.2055 19.1912 23.8288 18.7209C23.4361 18.2291 22.8299 17.6532 21.9304 16.8027L19.9932 14.9708C19.8246 14.811 19.7232 14.5874 19.7115 14.3492C19.6997 14.111 19.7784 13.8776 19.9304 13.7003Z" fill="white"/>
</svg>
